# xmcd CD database file
#
# Track frame offsets:
#	150
#	13920
#	27949
#	42058
#	61746
#	71656
#	87090
#	99028
#	113796
#	129392
#	143699
#	157883
#	170936
#	182608
#	195901
#	207564
#	222892
#	233531
#	245478
#	258559
#
# Disc length: 3635 seconds
#
# Revision: 0
# Processed by: cddbd v1.5.2PL0 Copyright (c) Steve Scherf et al.
# Submitted via: CDex 1.70beta2
#
DISCID=0a0e3114
DTITLE=Various Artist - Ladies sing Jazz - CD3
DYEAR=1900
DGENRE=Jazz
TTITLE0=They Can`t Take That Away From Me - Billie Holiday
TTITLE1=Tenderly - Sarah Vaughan
TTITLE2=My Heart Belongs To Daddy - Ella Fitzgerald
TTITLE3=Underneath The Apple Tree - Carmen Mcrae
TTITLE4=When A Woman Loves A Man - Peggy Lee
TTITLE5=Smoke Gets In Your Eyes - Dinah Shore
TTITLE6=Wanting You - Astrud Gilberto
TTITLE7=Lover Man - Billie Holiday
TTITLE8=Goodnight, My Love - Sarah Vaughan
TTITLE9=You`re Gonna Lose Your Gal - Ella Fitzgerald
TTITLE10=He`s Got The Whole World In His Hands - Nina Simone
TTITLE11=Mama, He Treats Your Daughter Mean - Ruth Brown
TTITLE12=Its Funny - Dinah Washington
TTITLE13=Body And Soul - Billie Holiday
TTITLE14=Nice Work If You Can Get It - Sarah Vaughan
TTITLE15=Im Confession (That I Love You) - Ella Fitzgerald
TTITLE16=For Sentimental Reasons - Peggy Lee
TTITLE17=Since I Feel For You - Dinah Washington
TTITLE18=Cow Cow Boogie (Cuma - Ti- Ti- Ti Ay) - Ella Fitzgerald
TTITLE19=Bali Ha`i - Peggy Lee
EXTD=
EXTT0=
EXTT1=
EXTT2=
EXTT3=
EXTT4=
EXTT5=
EXTT6=
EXTT7=
EXTT8=
EXTT9=
EXTT10=
EXTT11=
EXTT12=
EXTT13=
EXTT14=
EXTT15=
EXTT16=
EXTT17=
EXTT18=
EXTT19=
PLAYORDER=
